<?xml version="1.0" encoding="UTF-8" standalone="no"?>
<!-- Created with Inkscape (http://www.inkscape.org/) -->

<svg
   xmlns:dc="http://purl.org/dc/elements/1.1/"
   xmlns:cc="http://creativecommons.org/ns#"
   xmlns:rdf="http://www.w3.org/1999/02/22-rdf-syntax-ns#"
   xmlns:svg="http://www.w3.org/2000/svg"
   xmlns="http://www.w3.org/2000/svg"
   xmlns:xlink="http://www.w3.org/1999/xlink"
   xmlns:sodipodi="http://sodipodi.sourceforge.net/DTD/sodipodi-0.dtd"
   xmlns:inkscape="http://www.inkscape.org/namespaces/inkscape"
   width="32"
   height="32"
   id="svg2"
   version="1.1"
   inkscape:version="0.47 r22583"
   sodipodi:docname="iconosvg_notificacion.svg">
  <defs
     id="defs4">
    <linearGradient
       id="linearGradient5145">
      <stop
         style="stop-color:#696969;stop-opacity:1;"
         offset="0"
         id="stop5147" />
      <stop
         style="stop-color:#0a0a0a;stop-opacity:1;"
         offset="1"
         id="stop5149" />
    </linearGradient>
    <marker
       inkscape:stockid="Arrow2Send"
       orient="auto"
       refY="0"
       refX="0"
       id="Arrow2Send"
       style="overflow:visible">
      <path
         id="path3780"
         style="font-size:12px;fill-rule:evenodd;stroke-width:0.625;stroke-linejoin:round"
         d="M 8.7185878,4.0337352 -2.2072895,0.01601326 8.7185884,-4.0017078 c -1.7454984,2.3720609 -1.7354408,5.6174519 -6e-7,8.035443 z"
         transform="matrix(-0.3,0,0,-0.3,0.69,0)" />
    </marker>
    <marker
       inkscape:stockid="Arrow2Mend"
       orient="auto"
       refY="0"
       refX="0"
       id="Arrow2Mend"
       style="overflow:visible">
      <path
         id="path3774"
         style="font-size:12px;fill-rule:evenodd;stroke-width:0.625;stroke-linejoin:round"
         d="M 8.7185878,4.0337352 -2.2072895,0.01601326 8.7185884,-4.0017078 c -1.7454984,2.3720609 -1.7354408,5.6174519 -6e-7,8.035443 z"
         transform="scale(-0.6,-0.6)" />
    </marker>
    <linearGradient
       id="linearGradient3631">
      <stop
         id="stop3633"
         offset="0"
         style="stop-color:#ffffff;stop-opacity:1;" />
      <stop
         id="stop3635"
         offset="1"
         style="stop-color:#646464;stop-opacity:1;" />
    </linearGradient>
    <linearGradient
       id="linearGradient3619">
      <stop
         style="stop-color:#e0e0e0;stop-opacity:1;"
         offset="0"
         id="stop3621" />
      <stop
         style="stop-color:#a0a0a0;stop-opacity:1;"
         offset="1"
         id="stop3623" />
    </linearGradient>
    <linearGradient
       id="linearGradient3606">
      <stop
         id="stop3608"
         offset="0"
         style="stop-color:#ffeca1;stop-opacity:1;" />
      <stop
         style="stop-color:#ffcb01;stop-opacity:1;"
         offset="0.5"
         id="stop3612" />
      <stop
         id="stop3610"
         offset="1"
         style="stop-color:#7d6400;stop-opacity:1;" />
    </linearGradient>
    <linearGradient
       id="linearGradient3594">
      <stop
         style="stop-color:#ffcc00;stop-opacity:1;"
         offset="0"
         id="stop3596" />
      <stop
         style="stop-color:#a08000;stop-opacity:1;"
         offset="1"
         id="stop3598" />
    </linearGradient>
    <inkscape:perspective
       sodipodi:type="inkscape:persp3d"
       inkscape:vp_x="0 : 526.18109 : 1"
       inkscape:vp_y="0 : 1000 : 0"
       inkscape:vp_z="744.09448 : 526.18109 : 1"
       inkscape:persp3d-origin="372.04724 : 350.78739 : 1"
       id="perspective10" />
    <linearGradient
       inkscape:collect="always"
       xlink:href="#linearGradient3606"
       id="linearGradient3600"
       x1="33.125"
       y1="30.75"
       x2="33.125"
       y2="54.875"
       gradientUnits="userSpaceOnUse" />
    <linearGradient
       inkscape:collect="always"
       xlink:href="#linearGradient3594"
       id="linearGradient3604"
       gradientUnits="userSpaceOnUse"
       x1="33.125"
       y1="30.75"
       x2="33.125"
       y2="54.875" />
    <linearGradient
       inkscape:collect="always"
       xlink:href="#linearGradient3631"
       id="linearGradient3625"
       x1="31.875"
       y1="40.625"
       x2="31.875"
       y2="52.750645"
       gradientUnits="userSpaceOnUse" />
    <linearGradient
       inkscape:collect="always"
       xlink:href="#linearGradient3619"
       id="linearGradient3629"
       gradientUnits="userSpaceOnUse"
       x1="31.875"
       y1="40.625"
       x2="31.875"
       y2="52.750645"
       gradientTransform="matrix(0.95876289,0,0,0.95876289,1.4845361,981.97491)" />
    <inkscape:perspective
       id="perspective2878"
       inkscape:persp3d-origin="0.5 : 0.33333333 : 1"
       inkscape:vp_z="1 : 0.5 : 1"
       inkscape:vp_y="0 : 1000 : 0"
       inkscape:vp_x="0 : 0.5 : 1"
       sodipodi:type="inkscape:persp3d" />
    <inkscape:perspective
       id="perspective2952"
       inkscape:persp3d-origin="0.5 : 0.33333333 : 1"
       inkscape:vp_z="1 : 0.5 : 1"
       inkscape:vp_y="0 : 1000 : 0"
       inkscape:vp_x="0 : 0.5 : 1"
       sodipodi:type="inkscape:persp3d" />
    <inkscape:perspective
       id="perspective5180"
       inkscape:persp3d-origin="0.5 : 0.33333333 : 1"
       inkscape:vp_z="1 : 0.5 : 1"
       inkscape:vp_y="0 : 1000 : 0"
       inkscape:vp_x="0 : 0.5 : 1"
       sodipodi:type="inkscape:persp3d" />
    <linearGradient
       inkscape:collect="always"
       xlink:href="#linearGradient5145-9"
       id="linearGradient5151-1"
       x1="12.5"
       y1="1038.2919"
       x2="12.5"
       y2="1046.7329"
       gradientUnits="userSpaceOnUse"
       gradientTransform="translate(0,-1027.3622)" />
    <linearGradient
       id="linearGradient5145-9">
      <stop
         style="stop-color:#696969;stop-opacity:1;"
         offset="0"
         id="stop5147-9" />
      <stop
         style="stop-color:#0a0a0a;stop-opacity:1;"
         offset="1"
         id="stop5149-5" />
    </linearGradient>
  </defs>
  <sodipodi:namedview
     id="base"
     pagecolor="#ffffff"
     bordercolor="#666666"
     borderopacity="1.0"
     inkscape:pageopacity="0.0"
     inkscape:pageshadow="2"
     inkscape:zoom="1"
     inkscape:cx="10.176718"
     inkscape:cy="14.745096"
     inkscape:document-units="px"
     inkscape:current-layer="layer1"
     showgrid="false"
     showguides="true"
     inkscape:guide-bbox="true"
     inkscape:window-width="1280"
     inkscape:window-height="941"
     inkscape:window-x="0"
     inkscape:window-y="33"
     inkscape:window-maximized="1" />
  <metadata
     id="metadata7">
    <rdf:RDF>
      <cc:Work
         rdf:about="">
        <dc:format>image/svg+xml</dc:format>
        <dc:type
           rdf:resource="http://purl.org/dc/dcmitype/StillImage" />
        <dc:title></dc:title>
      </cc:Work>
    </rdf:RDF>
  </metadata>
  <g
     inkscape:label="Capa 1"
     inkscape:groupmode="layer"
     id="layer1"
     transform="translate(0,-1020.3622)">
    <path
       sodipodi:type="arc"
       style="fill:#7e7e7e;fill-opacity:1;fill-rule:nonzero;stroke:none"
       id="path5222"
       sodipodi:cx="10.871767"
       sodipodi:cy="14.32233"
       sodipodi:rx="5.7452426"
       sodipodi:ry="5.7452426"
       d="m 16.61701,14.32233 a 5.7452426,5.7452426 0 1 1 -11.4904856,0 5.7452426,5.7452426 0 1 1 11.4904856,0 z"
       transform="matrix(1.6307692,0,0,1.6307692,-1.5872071,1010.621)" />
    <g
       id="g5218"
       transform="translate(-2e-7,3.812)">
      <path
         id="rect3614"
         d="m 19.958249,1025.4086 c -3.463696,0 -6.28701,2.6313 -6.663658,6.0373 l -6.5910293,0 c -2.2532238,0 -4.0671923,1.839 -4.0671923,4.123 0,2.2841 1.8139685,4.1229 4.0671923,4.1229 l 18.5928773,0 c 2.253224,0 4.067192,-1.8388 4.067192,-4.1229 0,-1.6548 -0.960649,-3.0605 -2.342264,-3.7182 -0.188237,-3.5996 -3.100541,-6.4421 -6.699976,-6.4421 l -0.363142,0 z"
         style="fill:#000000;fill-opacity:1;stroke:#000000;stroke-width:1.2727387;stroke-opacity:1" />
      <path
         id="path4380"
         d="m 23.660177,1028.9581 a 0.79783026,0.79757004 43.646759 0 0 -0.923269,1.3008 c 1.372656,1.3093 1.423901,3.4568 0.115011,4.8291 -0.654535,0.6861 -1.515514,1.0304 -2.390996,1.0508 a 0.79170938,0.79145109 43.646759 0 0 -0.202061,0.045 l -0.03187,-1.3393 -2.079793,2.1805 2.202001,2.1003 -0.05349,-1.3996 a 0.79170938,0.79145109 43.646759 0 0 0.203028,-0.01 c 1.276631,-0.03 2.547428,-0.5493 3.496002,-1.5439 1.897036,-1.9888 1.821571,-5.1635 -0.167988,-7.0612 a 0.78880121,0.78854392 43.646759 0 0 -0.103551,-0.099 0.79273345,0.79247493 43.646759 0 0 -0.06227,-0.06 z m -3.406278,-2.3766 0.0073,1.157 c -1.276692,0.03 -2.54742,0.5493 -3.495943,1.5437 -1.897095,1.989 -1.821641,5.1636 0.167928,7.0613 a 0.78950471,0.78924719 43.646759 1 0 1.089463,-1.1422 c -1.372646,-1.3093 -1.423844,-3.4569 -0.114823,-4.8293 0.654354,-0.6859 1.535132,-1.0509 2.410658,-1.0715 l 0.0377,1.5827 2.099848,-2.2015 -2.202075,-2.1002 z"
         style="font-size:medium;font-style:normal;font-variant:normal;font-weight:normal;font-stretch:normal;text-indent:0;text-align:start;text-decoration:none;line-height:normal;letter-spacing:normal;word-spacing:normal;text-transform:none;direction:ltr;block-progression:tb;writing-mode:lr-tb;text-anchor:start;color:#000000;fill:#ffffff;fill-opacity:1;stroke:none;stroke-width:1.71710515;marker:none;visibility:visible;display:inline;overflow:visible;enable-background:accumulate;font-family:aakar;-inkscape-font-specification:aakar" />
    </g>
  </g>
</svg>
