<?xml version="1.0" encoding="UTF-8" standalone="no"?>
<!-- Created with Inkscape (http://www.inkscape.org/) -->

<svg
   xmlns:dc="http://purl.org/dc/elements/1.1/"
   xmlns:cc="http://creativecommons.org/ns#"
   xmlns:rdf="http://www.w3.org/1999/02/22-rdf-syntax-ns#"
   xmlns:svg="http://www.w3.org/2000/svg"
   xmlns="http://www.w3.org/2000/svg"
   xmlns:xlink="http://www.w3.org/1999/xlink"
   xmlns:sodipodi="http://sodipodi.sourceforge.net/DTD/sodipodi-0.dtd"
   xmlns:inkscape="http://www.inkscape.org/namespaces/inkscape"
   width="48"
   height="48"
   id="svg2"
   version="1.1"
   inkscape:version="0.47 r22583"
   sodipodi:docname="menu_update.svg"
   inkscape:export-filename="/home/ryu/devel/svn/OTempo/res/drawable-ldpi/menu_update.png"
   inkscape:export-xdpi="67.5"
   inkscape:export-ydpi="67.5">
  <defs
     id="defs4">
    <linearGradient
       id="linearGradient3856">
      <stop
         id="stop3858"
         offset="0"
         style="stop-color:#dcdcdc;stop-opacity:1;" />
      <stop
         id="stop3860"
         offset="1"
         style="stop-color:#404040;stop-opacity:1;" />
    </linearGradient>
    <linearGradient
       id="linearGradient3824">
      <stop
         style="stop-color:#a3a3a3;stop-opacity:1;"
         offset="0"
         id="stop3826" />
      <stop
         style="stop-color:#787878;stop-opacity:1;"
         offset="1"
         id="stop3828" />
    </linearGradient>
    <inkscape:perspective
       sodipodi:type="inkscape:persp3d"
       inkscape:vp_x="0 : 526.18109 : 1"
       inkscape:vp_y="0 : 1000 : 0"
       inkscape:vp_z="744.09448 : 526.18109 : 1"
       inkscape:persp3d-origin="372.04724 : 350.78739 : 1"
       id="perspective10" />
    <inkscape:perspective
       id="perspective2958"
       inkscape:persp3d-origin="0.5 : 0.33333333 : 1"
       inkscape:vp_z="1 : 0.5 : 1"
       inkscape:vp_y="0 : 1000 : 0"
       inkscape:vp_x="0 : 0.5 : 1"
       sodipodi:type="inkscape:persp3d" />
    <inkscape:perspective
       id="perspective3007"
       inkscape:persp3d-origin="0.5 : 0.33333333 : 1"
       inkscape:vp_z="1 : 0.5 : 1"
       inkscape:vp_y="0 : 1000 : 0"
       inkscape:vp_x="0 : 0.5 : 1"
       sodipodi:type="inkscape:persp3d" />
    <linearGradient
       inkscape:collect="always"
       xlink:href="#linearGradient3824"
       id="linearGradient3830"
       x1="23.8125"
       y1="9.608984"
       x2="23.8125"
       y2="29.609375"
       gradientUnits="userSpaceOnUse" />
    <linearGradient
       inkscape:collect="always"
       xlink:href="#linearGradient3856"
       id="linearGradient3854"
       x1="24.675163"
       y1="30.681822"
       x2="24.675163"
       y2="11.756403"
       gradientUnits="userSpaceOnUse" />
    <filter
       inkscape:collect="always"
       id="filter3882">
      <feGaussianBlur
         inkscape:collect="always"
         stdDeviation="0.15273438"
         id="feGaussianBlur3884" />
    </filter>
    <linearGradient
       inkscape:collect="always"
       xlink:href="#linearGradient3824"
       id="linearGradient3891"
       gradientUnits="userSpaceOnUse"
       x1="23.8125"
       y1="9.608984"
       x2="23.8125"
       y2="29.609375" />
    <linearGradient
       inkscape:collect="always"
       xlink:href="#linearGradient3856"
       id="linearGradient3893"
       gradientUnits="userSpaceOnUse"
       x1="24.675163"
       y1="30.681822"
       x2="24.675163"
       y2="11.756403" />
  </defs>
  <sodipodi:namedview
     id="base"
     pagecolor="#ffffff"
     bordercolor="#666666"
     borderopacity="1.0"
     inkscape:pageopacity="0.0"
     inkscape:pageshadow="2"
     inkscape:zoom="1"
     inkscape:cx="17.481956"
     inkscape:cy="21.060285"
     inkscape:document-units="px"
     inkscape:current-layer="layer1"
     showgrid="true"
     showguides="true"
     inkscape:guide-bbox="true"
     inkscape:snap-global="true"
     inkscape:snap-grids="false"
     inkscape:snap-nodes="false"
     inkscape:snap-bbox="true"
     inkscape:window-width="1280"
     inkscape:window-height="941"
     inkscape:window-x="0"
     inkscape:window-y="33"
     inkscape:window-maximized="1">
    <sodipodi:guide
       orientation="1,0"
       position="6,25"
       id="guide2816" />
    <inkscape:grid
       type="xygrid"
       id="grid2818"
       empspacing="5"
       visible="true"
       enabled="true"
       snapvisiblegridlinesonly="true" />
    <sodipodi:guide
       orientation="0,1"
       position="25,6"
       id="guide2820" />
    <sodipodi:guide
       orientation="0,1"
       position="21,42"
       id="guide2822" />
    <sodipodi:guide
       orientation="1,0"
       position="42,31"
       id="guide2824" />
  </sodipodi:namedview>
  <metadata
     id="metadata7">
    <rdf:RDF>
      <cc:Work
         rdf:about="">
        <dc:format>image/svg+xml</dc:format>
        <dc:type
           rdf:resource="http://purl.org/dc/dcmitype/StillImage" />
        <dc:title></dc:title>
      </cc:Work>
    </rdf:RDF>
  </metadata>
  <g
     inkscape:label="Capa 1"
     inkscape:groupmode="layer"
     id="layer1"
     transform="translate(0,-1004.3622)"
     style="display:inline">
    <g
       id="g3886"
       transform="matrix(0.95406887,0,0,0.95406887,1.1023471,52.436495)">
      <path
         transform="translate(0,1004.3622)"
         id="rect3614"
         d="M 24.1875,6 C 17.53464,6 12.125,11.378392 12.125,18.03125 c 0,0.01037 -2.6e-5,0.02089 0,0.03125 l 7.25,0 c 1.158005,-4.419125 4.96133,-7.78125 9.71875,-7.78125 l 0.46875,0 c 1.702946,0 3.292191,0.437508 4.6875,1.1875 C 32.099137,8.1807784 28.409777,6 24.1875,6 z m 4.90625,5.09375 c -4.605737,0 -8.311424,3.37665 -9.15625,7.78125 l -7.875,0 C 8.7203188,18.875 6,21.59885 6,24.96875 c 0,3.3698 2.7203565,6.125 6.0625,6.125 l 23.875,0 c 3.342143,0 6.0625,-2.7552 6.0625,-6.125 0,-2.2572 -1.291675,-4.09985 -3.09375,-5.15625 -0.43931,-4.8706 -4.408981,-8.71875 -9.34375,-8.71875 l -0.46875,0 z"
         style="font-size:medium;font-style:normal;font-variant:normal;font-weight:normal;font-stretch:normal;text-indent:0;text-align:start;text-decoration:none;line-height:normal;letter-spacing:normal;word-spacing:normal;text-transform:none;direction:ltr;block-progression:tb;writing-mode:lr-tb;text-anchor:start;color:#000000;fill:url(#linearGradient3891);fill-opacity:1;fill-rule:nonzero;stroke:none;stroke-width:1;marker:none;visibility:visible;display:inline;overflow:visible;enable-background:accumulate;font-family:aakar;-inkscape-font-specification:aakar" />
      <path
         id="path4380"
         d="m 33.8488,1020.8559 a 1.0257995,1.0254649 43.646759 0 0 -1.187061,1.6725 c 1.764844,1.6834 1.83073,4.4444 0.147872,6.2088 -0.841545,0.8821 -1.948518,1.3248 -3.074138,1.351 a 1.0179121,1.01758 43.646759 0 0 -0.259793,0.058 l -0.04098,-1.722 -2.674019,2.8035 2.831144,2.7004 -0.06877,-1.7995 a 1.0179121,1.01758 43.646759 0 0 0.261036,-0.013 c 1.641383,-0.039 3.275265,-0.7063 4.49486,-1.985 2.439046,-2.5571 2.34202,-6.6388 -0.215985,-9.0787 a 1.014173,1.0138422 43.646759 0 0 -0.133137,-0.1273 1.0192287,1.0188963 43.646759 0 0 -0.08006,-0.077 z m -4.379501,-3.0556 0.0094,1.4876 c -1.641461,0.038 -3.275254,0.7062 -4.494784,1.9847 -2.439122,2.5573 -2.34211,6.6389 0.215907,9.0788 a 1.0150775,1.0147464 43.646759 1 0 1.400739,-1.4685 c -1.764831,-1.6834 -1.830657,-4.4446 -0.14763,-6.2091 0.841312,-0.8819 1.973741,-1.3512 3.099417,-1.3777 l 0.04847,2.0349 2.699804,-2.8305 -2.831239,-2.7002 z"
         style="font-size:medium;font-style:normal;font-variant:normal;font-weight:normal;font-stretch:normal;text-indent:0;text-align:start;text-decoration:none;line-height:normal;letter-spacing:normal;word-spacing:normal;text-transform:none;direction:ltr;block-progression:tb;writing-mode:lr-tb;text-anchor:start;color:#000000;fill:#ffffff;fill-opacity:1;stroke:none;stroke-width:1.71710515;marker:none;visibility:visible;display:inline;overflow:visible;enable-background:accumulate;font-family:aakar;-inkscape-font-specification:aakar" />
      <path
         transform="translate(0,1004.3622)"
         style="font-size:medium;font-style:normal;font-variant:normal;font-weight:normal;font-stretch:normal;text-indent:0;text-align:start;text-decoration:none;line-height:normal;letter-spacing:normal;word-spacing:normal;text-transform:none;direction:ltr;block-progression:tb;writing-mode:lr-tb;text-anchor:start;color:#000000;fill:none;stroke:url(#linearGradient3893);stroke-width:1;stroke-linecap:round;stroke-linejoin:round;stroke-miterlimit:4;stroke-dasharray:none;marker:none;visibility:visible;display:inline;overflow:visible;filter:url(#filter3882);enable-background:accumulate;font-family:aakar;-inkscape-font-specification:aakar"
         d="M 24.1875,6 C 17.53464,6 12.125,11.378392 12.125,18.03125 c 0,0.01037 -2.6e-5,0.02089 0,0.03125 l 7.25,0 c 1.158005,-4.419125 4.96133,-7.78125 9.71875,-7.78125 l 0.46875,0 c 1.702946,0 3.292191,0.437508 4.6875,1.1875 C 32.099137,8.1807784 28.409777,6 24.1875,6 z m 4.90625,5.09375 c -4.605737,0 -8.311424,3.37665 -9.15625,7.78125 l -7.875,0 C 8.7203188,18.875 6,21.59885 6,24.96875 c 0,3.3698 2.7203565,6.125 6.0625,6.125 l 23.875,0 c 3.342143,0 6.0625,-2.7552 6.0625,-6.125 0,-2.2572 -1.291675,-4.09985 -3.09375,-5.15625 -0.43931,-4.8706 -4.408981,-8.71875 -9.34375,-8.71875 l -0.46875,0 z"
         id="path3846" />
    </g>
  </g>
  <g
     inkscape:groupmode="layer"
     id="layer2"
     inkscape:label="Dos"
     style="display:inline" />
</svg>
